<svg height="64" width="64" xmlns="http://www.w3.org/2000/svg" xmlns:xlink="http://www.w3.org/1999/xlink"><linearGradient id="a" gradientTransform="matrix(1 0 0 .99967455 -384.57143 -483.62155)" gradientUnits="userSpaceOnUse" x1="434.16153" x2="397.2283" y1="548.88599" y2="495.30789"><stop offset="0" stop-color="#127bdc"/><stop offset="1" stop-color="#64b4f4"/></linearGradient><linearGradient id="b" gradientUnits="userSpaceOnUse" x1="390.57144" x2="442.57144" y1="501.298" y2="501.298"><stop offset="0" stop-color="#fff"/><stop offset="1" stop-color="#fff" stop-opacity=".487603"/></linearGradient><linearGradient id="c" gradientUnits="userSpaceOnUse" x1="396.57144" x2="426.57144" y1="499.798" y2="512.798"><stop offset="0" stop-color="#f5f5f5"/><stop offset="1" stop-color="#f9f9f9"/></linearGradient><linearGradient id="d" gradientUnits="userSpaceOnUse" x1="388.57144" x2="416.57144" y1="487.798" y2="507.798"><stop offset="0" stop-color="#1d5e8c"/><stop offset="1" stop-color="#2675a7"/></linearGradient><linearGradient id="e" gradientUnits="userSpaceOnUse" x1="420.57144" x2="420.57144" y1="515.798" y2="531.79797"><stop offset="0"/><stop offset="1" stop-opacity="0"/></linearGradient><g transform="translate(-384.57143 -483.798)"><path d="m388.57143 489.79812v5 22c0 .55373.446 1 1 1h54c.55399 0 1-.44627 1-1v-21.99023c0-.003-.002-.006-.002-.01h.002v-1h-28l-4-4h-24z" fill="url(#d)"/><rect fill="url(#c)" height="14.999973" rx="1.000012" ry=".999996" width="52.000011" x="390.57144" y="498.798"/><path d="m26 24-4 4h-19v1h.0019531c-.00005.004-.0019531.008019-.0019531.011719v26.988281 1c0 .554.44599 1 1 1h56c.55401 0 1-.446 1-1v-1-26.988281-.011719-5z" fill="url(#a)" transform="translate(384.57143 483.798)"/><path d="m387.57144 511.79812v1h19.99999l3-5-4 4z" fill="#fff" fill-rule="evenodd" opacity=".3"/><path d="m28 6 3 5h2 27v-1h-27-1z" fill="#fff" fill-rule="evenodd" opacity=".3" transform="translate(384.57143 483.798)"/><path d="m391.57143 498.798c-.55401 0-1 .446-1 1v1c0-.554.44599-1 1-1h50c.55401 0 1 .446 1 1v-1c0-.554-.44599-1-1-1z" fill="url(#b)" opacity=".85"/><path d="m388.57143 541.798c-.55401 0-1-.446-1-1v-1c0 .554.44599 1 1 1h56c.55401 0 1-.446 1-1v1c0 .554-.44599 1-1 1z" opacity=".3"/><path d="m387.57143 512.798h20l3-5h35v33h-30z" fill="url(#e)" fill-rule="evenodd" opacity=".109"/></g></svg>